# xmcd CD database file
#
# Track frame offsets:
#	150
#	30881
#	50756
#	72406
#	96597
#	122576
#	153484
#	182507
#	201696
#	247450
#
# Disc length: 3904 seconds
#
# Revision: 0
# Processed by: cddbd v1.5.2PL0 Copyright (c) Steve Scherf et al.
# Submitted via: CDex 1.51
#
DISCID=970f3e0a
DTITLE=Grands Formats - 21 orchestres aujourd'hui CD2
DYEAR=2006
DGENRE=Jazz
TTITLE0=What a sun
TTITLE1=Eventide
TTITLE2=Ecco no muder
TTITLE3=Fous sticks
TTITLE4=A l'est du Golan
TTITLE5=Hold up de la Saltimbanque
TTITLE6=Motorpsycho blues
TTITLE7=L'ouie
TTITLE8=4/4 cm3 - horizons
TTITLE9=Alpissimo con fuoco
EXTD=YEAR: 2006
EXTT0=
EXTT1=
EXTT2=
EXTT3=
EXTT4=
EXTT5=
EXTT6=
EXTT7=
EXTT8=
EXTT9=
PLAYORDER=
